<svg width="100" height="100" viewBox="0 0 100 100" fill="none" xmlns="http://www.w3.org/2000/svg">
<rect width="100" height="100" fill="#E261E5"/>
<g clip-path="url(#clip0_1051_18692)">
<path d="M81.2026 31.4671V63.6371H71.1991V31.4671C71.1987 30.6019 71.5298 29.7704 72.1223 29.1487C72.7149 28.527 73.5224 28.1639 74.374 28.1362H78.0343C78.888 28.1555 79.6998 28.5162 80.293 29.1399C80.8863 29.7636 81.2132 30.6 81.2026 31.4671Z" fill="#00B8D4"/>
<path d="M78.0343 25.4116V31.5071C78.0343 32.0001 77.8415 32.4728 77.4982 32.8214C77.155 33.17 76.6895 33.3658 76.2041 33.3658C75.7187 33.3658 75.2532 33.17 74.91 32.8214C74.5668 32.4728 74.374 32.0001 74.374 31.5071V25.4116C74.3708 25.0428 74.4757 24.6814 74.6753 24.3734C74.875 24.0653 75.1603 23.8246 75.4951 23.6817C75.8299 23.5389 76.1989 23.5004 76.5553 23.5712C76.9117 23.642 77.2393 23.8188 77.4964 24.0792C77.6694 24.2533 77.8062 24.461 77.8986 24.6899C77.991 24.9188 78.0371 25.1642 78.0343 25.4116Z" fill="#00B8D4"/>
<path d="M82.9999 63.6172H69.3885V69.2797H82.9999V63.6172Z" fill="#FFAB00"/>
<path d="M81.0124 69.2795V70.059C81.0124 71.354 80.5058 72.5961 79.6041 73.5119C78.7024 74.4276 77.4794 74.9421 76.2041 74.9421C74.9289 74.9421 73.7059 74.4276 72.8042 73.5119C71.9025 72.5961 71.3959 71.354 71.3959 70.059V69.2795H81.0124Z" fill="#FFAB00"/>
<path d="M81.2026 31.467V34.6847L76.2369 36.7299L71.1991 38.795V31.467C71.1987 30.6018 71.5298 29.7703 72.1223 29.1486C72.7149 28.5269 73.5224 28.1638 74.374 28.1361V25.3981C74.3708 25.0294 74.4757 24.668 74.6753 24.3599C74.875 24.0519 75.1604 23.8112 75.4951 23.6683C75.8299 23.5255 76.199 23.487 76.5553 23.5577C76.9117 23.6285 77.2393 23.8054 77.4964 24.0658C77.6694 24.2399 77.8062 24.4476 77.8986 24.6764C77.991 24.9053 78.0371 25.1508 78.0343 25.3981V28.1361C78.888 28.1554 79.6998 28.5161 80.293 29.1398C80.8863 29.7635 81.2132 30.5999 81.2026 31.467Z" fill="#0091EA"/>
<g style="mix-blend-mode:overlay" opacity="0.3">
<path d="M83.0065 63.6172V69.2797H81.0386V70.0592C81.0386 71.3542 80.532 72.5963 79.6303 73.5121C78.7286 74.4278 77.5056 74.9423 76.2303 74.9423V23.553C76.7152 23.5547 77.1797 23.7511 77.5226 24.0993C77.8654 24.4475 78.0588 24.9192 78.0605 25.4116V28.1363C78.9142 28.1556 79.726 28.5162 80.3192 29.14C80.9125 29.7637 81.2394 30.6001 81.2288 31.4672V63.6371L83.0065 63.6172Z" fill="white"/>
</g>
<path d="M62.7043 42.6523C61.1693 34.2784 55.3509 30.2214 48.7715 33.0193C48.1795 33.2675 47.5433 33.3883 46.9031 33.3741C46.2628 33.3598 45.6324 33.2109 45.0517 32.9367C44.471 32.6625 43.9526 32.269 43.5293 31.7809C43.106 31.2929 42.7869 30.7211 42.5922 30.1015C42.1756 28.6768 41.5402 27.3279 40.7096 26.1044C39.0566 23.7861 36.4852 22.2872 32.4641 23.3264C32.4641 23.3264 14.2872 30.4279 18.6887 55.9693C21.4044 71.7578 31.5129 77.6069 40.7031 77.9533C46.3903 78.1665 51.7299 76.2612 54.7474 73.2901C62.8158 65.4424 64.6263 53.1647 62.7043 42.6523ZM52.5105 53.8642C49.8866 54.3505 47.1709 51.6391 46.4822 47.8019C45.7934 43.9647 47.3874 40.4739 50.0309 39.9743C52.6745 39.4746 55.3705 42.1993 56.0593 46.0365C56.7481 49.8737 55.1606 53.3779 52.5105 53.8642Z" fill="#FFAB00"/>
<path d="M37.0099 36.5102C37.0112 37.4011 36.7523 38.2725 36.2658 39.0139C35.7793 39.7554 35.0872 40.3336 34.2771 40.6755C33.4669 41.0174 32.5751 41.1075 31.7145 40.9345C30.8539 40.7615 30.0632 40.3331 29.4424 39.7036C28.8215 39.074 28.3986 38.2716 28.2269 37.3978C28.0553 36.5241 28.1427 35.6182 28.4782 34.795C28.8136 33.9717 29.3819 33.268 30.1113 32.7728C30.8407 32.2777 31.6983 32.0134 32.5756 32.0134C33.7505 32.0134 34.8774 32.487 35.7088 33.3301C36.5402 34.1732 37.0082 35.3169 37.0099 36.5102Z" fill="#00B8D4"/>
<path d="M34.2876 50.7331C34.2889 51.624 34.03 52.4954 33.5435 53.2369C33.057 53.9783 32.365 54.5565 31.5548 54.8984C30.7446 55.2403 29.8528 55.3304 28.9922 55.1574C28.1316 54.9844 27.3409 54.556 26.7201 53.9265C26.0993 53.2969 25.6763 52.4945 25.5046 51.6208C25.333 50.747 25.4204 49.8412 25.7559 49.0179C26.0913 48.1946 26.6596 47.4909 27.389 46.9957C28.1184 46.5006 28.976 46.2363 29.8533 46.2363C31.0282 46.2363 32.1551 46.7099 32.9865 47.553C33.8179 48.3961 34.2859 49.5398 34.2876 50.7331Z" fill="#DD2C00"/>
<path d="M39.5026 64.9629C39.5026 65.8538 39.2424 66.7248 38.7548 67.4655C38.2673 68.2062 37.5744 68.7834 36.7637 69.1241C35.953 69.4647 35.0611 69.5535 34.2008 69.3792C33.3404 69.2049 32.5503 68.7754 31.9304 68.1449C31.3105 67.5144 30.8887 66.7113 30.7183 65.8373C30.548 64.9633 30.6367 64.0576 30.9733 63.2348C31.31 62.4121 31.8794 61.7092 32.6095 61.2152C33.3395 60.7212 34.1975 60.4582 35.0748 60.4595C35.6568 60.4595 36.2332 60.576 36.7708 60.8024C37.3084 61.0288 37.7968 61.3606 38.2081 61.7789C38.6193 62.1971 38.9453 62.6936 39.1675 63.24C39.3896 63.7863 39.5035 64.3718 39.5026 64.9629Z" fill="#0091EA"/>
<g style="mix-blend-mode:overlay" opacity="0.3">
<path d="M62.7042 42.6524C61.1693 34.2785 55.3508 30.2215 48.7715 33.0195C48.1795 33.2676 47.5433 33.3884 46.903 33.3742C46.2628 33.36 45.6324 33.2111 45.0517 32.9368C44.471 32.6626 43.9526 32.2691 43.5293 31.7811C43.1059 31.2931 42.7869 30.7212 42.5922 30.1016C42.1756 28.677 41.5402 27.328 40.7096 26.1045V77.9734C46.3968 78.1866 51.7364 76.2813 54.7539 73.3102C62.8158 65.4425 64.6262 53.1648 62.7042 42.6524ZM52.5105 53.8643C49.8866 54.3506 47.1709 51.6393 46.4821 47.802C45.7934 43.9648 47.3874 40.474 50.0309 39.9744C52.6745 39.4748 55.3705 42.1994 56.0593 46.0367C56.748 49.8739 55.1606 53.378 52.5105 53.8643Z" fill="white"/>
</g>
</g>
<defs>
<clipPath id="clip0_1051_18692">
<rect width="65" height="55" fill="white" transform="translate(18 23)"/>
</clipPath>
</defs>
</svg>
