<svg width="100" height="100" viewBox="0 0 100 100" fill="none" xmlns="http://www.w3.org/2000/svg">
<rect width="100" height="100" fill="#9570FF"/>
<path d="M81 34.4153H19.199V70.0739H81V34.4153Z" fill="#2A576F"/>
<path d="M49.1977 66.4447C39.766 62.8452 30.8853 62.8201 21.433 66.3557C21.4649 56.592 21.5071 43.4147 21.5402 33.6521C30.9914 30.1153 39.8721 30.1427 49.305 33.7434C49.2719 43.506 49.2285 56.6798 49.1977 66.4447Z" fill="white"/>
<path d="M79.1324 32.8844C74.2574 31.0259 69.6026 30.1143 64.9009 30.096C60.1959 30.0801 55.5342 30.9609 50.6444 32.792L50.156 32.9768L49.6655 32.7874C44.7916 30.9289 40.1356 30.015 35.4306 30.0002C30.7278 29.9842 26.0673 30.8684 21.1797 32.6939L20.5168 32.9426L20.4039 67.8276L21.7889 67.3142C26.4426 65.571 30.8693 64.7313 35.3199 64.745C39.7705 64.7621 44.1903 65.6291 48.8315 67.4009L49.8708 67.7991L49.8686 67.928L50.042 67.8607L50.2097 67.928V67.8014L51.2559 67.4078C55.9062 65.6702 60.3328 64.8282 64.7846 64.8431C69.2352 64.8545 73.6527 65.7295 78.2962 67.4968L79.6766 68.0227L79.7896 33.1331L79.1324 32.8844Z" fill="#2A576F"/>
<path d="M49.1943 66.9549C39.766 63.3599 30.883 63.3314 21.4307 66.8659C21.465 57.0998 21.5049 43.9305 21.5368 34.1633C30.9903 30.6277 39.8698 30.6597 49.3016 34.2535C49.2685 44.0218 49.2274 57.1923 49.1943 66.9549Z" fill="white"/>
<path d="M50.8954 66.963C60.35 63.4262 69.2307 63.4558 78.659 67.0519C78.6921 57.287 78.7354 44.1143 78.7674 34.3517C69.3368 30.7533 60.4538 30.7259 51.0049 34.2627C50.9707 44.0242 50.9273 57.1969 50.8954 66.963Z" fill="white"/>
<path d="M46.6889 39.4754C37.2594 36.5433 33.4853 36.533 24.0353 39.4001C24.0353 37.2997 24.0399 39.9523 24.0399 37.7344C33.4911 34.8696 37.264 34.881 46.6935 37.8074C46.6946 39.9523 46.6889 37.8074 46.6889 39.4754Z" fill="#2A576F"/>
<path d="M53.5034 39.4949C62.9534 36.6279 66.7264 36.6404 76.1547 39.5725C76.1547 37.4767 76.1604 40.1293 76.1604 37.9011C66.7298 34.977 62.9568 34.9622 53.5068 37.8292C53.508 39.7756 53.5034 36.9462 53.5034 39.4949Z" fill="#2A576F"/>
<path d="M46.6889 44.9585C37.2594 42.0264 33.4853 42.0161 24.0353 44.8832C24.0353 42.7828 24.0399 45.4353 24.0399 43.2163C33.4911 40.3515 37.264 40.3629 46.6935 43.2916C46.6946 45.4354 46.6889 43.2905 46.6889 44.9585Z" fill="#2A576F"/>
<path d="M53.5034 44.9778C62.9534 42.1107 66.7264 42.1221 76.1547 45.0565C76.1547 42.9596 76.1604 45.6121 76.1604 43.384C66.7298 40.4599 62.9568 40.4439 53.5068 43.3121C53.508 45.2584 53.5034 42.429 53.5034 44.9778Z" fill="#2A576F"/>
<path d="M46.6889 50.4406C37.2594 47.5096 33.4853 47.4994 24.0353 50.3653C24.0353 48.2649 24.0399 50.9175 24.0399 48.6985C33.4911 45.8337 37.264 45.8462 46.6935 48.7726C46.6946 50.9186 46.6889 48.7737 46.6889 50.4406Z" fill="#2A576F"/>
<path d="M53.5034 50.4611C62.9534 47.594 66.7264 47.6054 76.1547 50.5387C76.1547 48.4417 76.1604 51.0954 76.1604 48.8673C66.7298 45.9432 62.9568 45.9272 53.5068 48.7942C53.508 50.7417 53.5034 47.9112 53.5034 50.4611Z" fill="#2A576F"/>
<path d="M46.6889 55.9237C37.2594 52.9928 33.4853 52.9825 24.0353 55.8484C24.0353 53.748 24.0399 56.4006 24.0399 54.1827C33.4911 51.3168 37.264 51.3293 46.6935 54.2569C46.6946 56.4006 46.6889 54.2557 46.6889 55.9237Z" fill="#2A576F"/>
<path d="M53.5034 55.942C62.9534 53.0761 66.7264 53.0875 76.1547 56.0208C76.1547 53.9249 76.1604 56.5775 76.1604 54.3494C66.7298 51.4252 62.9568 51.4104 53.5068 54.2775C53.508 56.225 53.5034 53.3944 53.5034 55.942Z" fill="#2A576F"/>
<path d="M46.6889 61.4068C37.2594 58.4758 33.4853 58.4655 24.0353 61.3315C24.0353 59.2322 24.0399 61.8848 24.0399 59.6657C33.4911 56.7998 37.264 56.8124 46.6935 59.7388C46.6946 61.8837 46.6889 59.7388 46.6889 61.4068Z" fill="#2A576F"/>
<path d="M53.5034 61.4252C62.9534 58.5593 66.7264 58.5707 76.1547 61.5039C76.1547 59.4081 76.1604 62.0595 76.1604 59.8325C66.7298 56.9084 62.9568 56.8936 53.5068 59.7606C53.508 61.707 53.5034 58.8776 53.5034 61.4252Z" fill="#2A576F"/>
</svg>
