<svg width="100" height="100" viewBox="0 0 100 100" fill="none" xmlns="http://www.w3.org/2000/svg">
<rect width="100" height="100" fill="#FF9C40"/>
<path d="M79.7786 70.1252C79.7786 72.2302 78.1964 73.9691 76.0907 73.9691H26.0801C23.9751 73.9691 22.2684 72.2463 22.2684 70.1413L18.1514 33.1423C18.1514 31.0373 19.8581 29.3064 21.9631 29.3064H76.0907C78.1957 29.3064 79.7786 31.0453 79.7786 33.1503V70.1252Z" fill="#D8D8D8"/>
<path d="M49.0272 73.9691H26.1562C24.0512 73.9691 18.2758 72.0648 18.2758 69.9597V33.3158C18.2758 31.2108 19.9342 29.3064 22.0399 29.3064H49.0272" fill="#EAEAEA"/>
<path d="M75.3856 66.3814C75.3856 68.1452 73.9556 69.5751 72.1918 69.5751H25.8626C24.0988 69.5751 22.6689 68.1452 22.6689 66.3814V36.1601C22.6689 34.3962 24.0988 32.9663 25.8626 32.9663H72.1918C73.9556 32.9663 75.3856 34.3962 75.3856 36.1601V66.3814Z" fill="#4A7AAF"/>
<path d="M83.3333 67.3789C83.3333 72.5041 81.0578 73.9685 78.2506 73.9685H19.8032C16.996 73.9685 14.7204 72.5041 14.7204 67.3789H49.0272C57.9217 67.3789 83.3333 67.3789 83.3333 67.3789Z" fill="#EAEAEA"/>
<path d="M49.0272 73.9685H19.8032C16.996 73.9685 14.7204 72.5041 14.7204 67.3789H49.0272" fill="#F7F7F7"/>
<path d="M49.3508 39.6624C54.8919 39.6624 59.3838 44.1543 59.3838 49.6954C59.3838 55.2365 54.8919 59.7284 49.3508 59.7284C43.8097 59.7284 39.3178 55.2365 39.3178 49.6954C39.3178 44.1543 43.8097 39.6624 49.3508 39.6624ZM49.3508 38.3679C43.1046 38.3679 38.0233 43.4492 38.0233 49.6954C38.0233 55.9416 43.1046 61.0229 49.3508 61.0229C55.597 61.0229 60.6783 55.9416 60.6783 49.6954C60.6783 43.4492 55.597 38.3679 49.3508 38.3679Z" fill="#FCFCFC"/>
<path d="M46.0985 43.598L50.8979 46.4344L55.6929 49.2709L50.8957 52.1073L46.0985 54.9438V49.2709V43.9487M46.1146 42.3035C45.8935 42.3035 45.5794 42.3598 45.3803 42.4733C44.9761 42.704 44.6342 43.133 44.6342 43.598V49.2709V54.9438C44.6342 55.4087 44.9761 55.8377 45.3803 56.0684C45.5794 56.1819 45.8466 56.2382 46.0678 56.2382C46.2962 56.2382 46.5473 56.1782 46.7502 56.0574L51.5532 53.2209L56.3504 50.3845C56.7444 50.1517 56.9882 49.7277 56.9882 49.2709C56.9882 48.8132 56.748 48.39 56.3548 48.1572L51.5642 45.3208L46.7728 42.4843C46.57 42.3635 46.3423 42.3035 46.1146 42.3035Z" fill="#FCFCFC"/>
</svg>
