<svg width="100" height="100" viewBox="0 0 100 100" fill="none" xmlns="http://www.w3.org/2000/svg">
<rect width="100" height="100" fill="#5ACDFF"/>
<g clip-path="url(#clip0_1049_11403)">
<path opacity="0.25" d="M72.7309 45.7106H70.3527H70.1818H70.0145H57.6509V43.5522H44.64V45.7106H30.1854C30.0618 45.7106 29.9418 45.6926 29.8218 45.6926C27.0624 45.6886 24.35 46.3987 21.9538 47.7524C19.5577 49.1061 17.5612 51.0564 16.1626 53.4095C14.764 55.7626 14.0119 58.4367 13.9811 61.1662C13.9503 63.8958 14.6419 66.5858 15.987 68.9693C17.3322 71.3527 19.2842 73.3465 21.6492 74.7528C24.0142 76.1591 26.7099 76.9289 29.4687 76.9858C32.2275 77.0427 34.9533 76.3847 37.3755 75.0771C39.7977 73.7695 41.8319 71.8579 43.2763 69.532H56.7309C58.5325 72.4363 61.2437 74.6789 64.4521 75.9187C67.6605 77.1585 71.1905 77.3277 74.505 76.4005C77.8195 75.4732 80.7372 73.5003 82.8141 70.7819C84.8911 68.0635 86.0136 64.7484 86.0109 61.3409C86 53.5671 80.2509 46.9193 72.7309 45.7106Z" fill="black"/>
<path d="M72.7309 43.6279H70.3527H70.1818H70.0145H57.6509V41.4695H44.64V43.6279H30.1854C30.0618 43.6279 29.9418 43.6279 29.8218 43.6279C27.0624 43.6238 24.35 44.3339 21.9538 45.6876C19.5577 47.0413 17.5612 48.9916 16.1626 51.3447C14.764 53.6978 14.0119 56.3719 13.9811 59.1015C13.9503 61.831 14.6419 64.5211 15.987 66.9045C17.3322 69.2879 19.2842 71.2817 21.6492 72.688C24.0142 74.0943 26.7099 74.8641 29.4687 74.921C32.2275 74.9779 34.9533 74.3199 37.3755 73.0123C39.7977 71.7047 41.8319 69.7931 43.2763 67.4672H56.7309C58.5325 70.3715 61.2437 72.6141 64.4521 73.8539C67.6605 75.0937 71.1905 75.2629 74.505 74.3357C77.8195 73.4084 80.7372 71.4356 82.8141 68.7172C84.8911 65.9988 86.0136 62.6836 86.0109 59.2761C86 51.4952 80.2509 44.8474 72.7309 43.6279Z" fill="white"/>
<path d="M83.2218 50.434C83.2996 51.0402 83.3409 51.6504 83.3454 52.2615C83.3481 55.669 82.2256 58.9841 80.1486 61.7025C78.0717 64.4209 75.1541 66.3938 71.8395 67.321C68.525 68.2482 64.995 68.0791 61.7866 66.8392C58.5782 65.5994 55.867 63.3568 54.0654 60.4525H40.6109C39.2337 62.6738 37.317 64.5192 35.0352 65.821C32.7533 67.1227 30.1787 67.8394 27.5454 67.9058C24.9122 67.9723 22.304 67.3865 19.958 66.2016C17.6119 65.0168 15.6026 63.2705 14.1127 61.1216C14.4967 64.3489 15.8877 67.3775 18.0922 69.7865C20.2968 72.1955 23.2053 73.865 26.4135 74.563C29.6216 75.261 32.9699 74.9527 35.9927 73.681C39.0155 72.4093 41.5627 70.2374 43.2799 67.4673H56.7345C57.841 69.2409 59.2948 70.7777 61.0103 71.9875C62.7259 73.1973 64.6686 74.0557 66.7243 74.5121C68.78 74.9685 70.9071 75.0138 72.9808 74.6453C75.0544 74.2769 77.0327 73.502 78.7992 72.3664C80.5658 71.2307 82.0851 69.7571 83.2678 68.0323C84.4504 66.3075 85.2726 64.3662 85.686 62.3225C86.0994 60.2788 86.0956 58.174 85.6749 56.1318C85.2542 54.0895 84.4251 52.1511 83.2363 50.4304L83.2218 50.434Z" fill="#E1EFFA"/>
<path d="M65.1345 57.125C66.942 57.125 68.4073 55.6755 68.4073 53.8875C68.4073 52.0994 66.942 50.6499 65.1345 50.6499C63.3271 50.6499 61.8618 52.0994 61.8618 53.8875C61.8618 55.6755 63.3271 57.125 65.1345 57.125Z" fill="#DE3F18"/>
<path opacity="0.15" d="M65.1381 56.2183C64.3491 56.2181 63.5867 55.9358 62.9913 55.4236C62.396 54.9113 62.0077 54.2034 61.8981 53.4304C61.8779 53.5807 61.867 53.7321 61.8654 53.8837C61.8654 54.7423 62.2102 55.5658 62.824 56.173C63.4377 56.7802 64.2702 57.1213 65.1381 57.1213C66.0061 57.1213 66.8386 56.7802 67.4523 56.173C68.0661 55.5658 68.4109 54.7423 68.4109 53.8837C68.4081 53.732 68.3959 53.5806 68.3745 53.4304C68.265 54.2028 67.8773 54.9102 67.2827 55.4224C66.6881 55.9346 65.9266 56.2172 65.1381 56.2183Z" fill="black"/>
<path d="M76.0436 57.125C77.8511 57.125 79.3163 55.6755 79.3163 53.8875C79.3163 52.0994 77.8511 50.6499 76.0436 50.6499C74.2361 50.6499 72.7709 52.0994 72.7709 53.8875C72.7709 55.6755 74.2361 57.125 76.0436 57.125Z" fill="#FFFD00"/>
<path opacity="0.15" d="M76.0473 56.2183C75.2582 56.2181 74.4958 55.9358 73.9004 55.4236C73.3051 54.9113 72.9169 54.2034 72.8073 53.4304C72.7871 53.5807 72.7761 53.7321 72.7745 53.8837C72.7745 54.7423 73.1193 55.5658 73.7331 56.173C74.3469 56.7802 75.1793 57.1213 76.0473 57.1213C76.9152 57.1213 77.7477 56.7802 78.3614 56.173C78.9752 55.5658 79.32 54.7423 79.32 53.8837C79.3172 53.732 79.3051 53.5806 79.2836 53.4304C79.1741 54.2028 78.7864 54.9102 78.1918 55.4224C77.5972 55.9346 76.8357 56.2172 76.0473 56.2183Z" fill="black"/>
<path d="M65.1345 67.9168C66.942 67.9168 68.4073 66.4673 68.4073 64.6792C68.4073 62.8912 66.942 61.4417 65.1345 61.4417C63.3271 61.4417 61.8618 62.8912 61.8618 64.6792C61.8618 66.4673 63.3271 67.9168 65.1345 67.9168Z" fill="#62C32D"/>
<path opacity="0.15" d="M65.1381 67.0103C64.3491 67.0101 63.5867 66.7278 62.9913 66.2156C62.396 65.7033 62.0077 64.9954 61.8981 64.2224C61.8779 64.3727 61.867 64.5241 61.8654 64.6757C61.8654 65.5343 62.2102 66.3578 62.824 66.965C63.4377 67.5721 64.2702 67.9132 65.1381 67.9132C66.0061 67.9132 66.8386 67.5721 67.4523 66.965C68.0661 66.3578 68.4109 65.5343 68.4109 64.6757C68.4081 64.524 68.3959 64.3726 68.3745 64.2224C68.265 64.9948 67.8773 65.7022 67.2827 66.2144C66.6881 66.7266 65.9266 67.0092 65.1381 67.0103Z" fill="black"/>
<path d="M76.0436 67.9168C77.8511 67.9168 79.3163 66.4673 79.3163 64.6792C79.3163 62.8912 77.8511 61.4417 76.0436 61.4417C74.2361 61.4417 72.7709 62.8912 72.7709 64.6792C72.7709 66.4673 74.2361 67.9168 76.0436 67.9168Z" fill="#4DC7F8"/>
<path opacity="0.15" d="M76.0473 67.0103C75.2582 67.0101 74.4958 66.7278 73.9004 66.2156C73.3051 65.7033 72.9169 64.9954 72.8073 64.2224C72.7871 64.3727 72.7761 64.5241 72.7745 64.6757C72.7745 65.5343 73.1193 66.3578 73.7331 66.965C74.3469 67.5721 75.1793 67.9132 76.0473 67.9132C76.9152 67.9132 77.7477 67.5721 78.3614 66.965C78.9752 66.3578 79.32 65.5343 79.32 64.6757C79.3172 64.524 79.3051 64.3726 79.2836 64.2224C79.1741 64.9948 78.7864 65.7022 78.1918 66.2144C77.5972 66.7266 76.8357 67.0092 76.0473 67.0103Z" fill="black"/>
<path d="M34.9563 57.2184H30.5927V52.9016H26.2291V57.2184H21.8654V61.5351H26.2291V65.8519H30.5927V61.5351H34.9563V57.2184Z" fill="#2A445E"/>
<path d="M30.5927 65.8519V61.5351H34.9563V57.2184H30.5927V52.9016H28.4109V65.8519H30.5927Z" fill="#20364D"/>
<path d="M27.5018 55.5242L28.4109 53.9666L29.32 55.5242H27.5018Z" fill="white"/>
<path d="M29.32 63.2295L28.4109 64.7871L27.5018 63.2295H29.32Z" fill="white"/>
<path d="M32.3054 58.4775L33.8763 59.3769L32.3054 60.2762V58.4775Z" fill="white"/>
<path d="M24.5127 60.2762L22.9418 59.3769L24.5127 58.4775V60.2762Z" fill="white"/>
<path d="M49.8691 54.7437H46.0509V55.5207H49.8691V54.7437Z" fill="#2A445E"/>
<path d="M56.3091 54.7437H52.4909V55.5207H56.3091V54.7437Z" fill="#2A445E"/>
</g>
<rect x="49" width="5" height="43" fill="white"/>
<defs>
<clipPath id="clip0_1049_11403">
<rect width="72" height="71" fill="white" transform="translate(14 6)"/>
</clipPath>
</defs>
</svg>
