<svg width="100" height="100" viewBox="0 0 100 100" fill="none" xmlns="http://www.w3.org/2000/svg">
<rect width="100" height="100" fill="#F84040"/>
<path d="M60.9642 23H39.0334C37.47 23 36.1978 24.3279 36.1978 25.9598V33.3248H40.4624V28.6307C40.4624 27.9713 40.9566 27.4344 41.5631 27.4344H58.4344C59.041 27.4344 59.5352 27.9713 59.5352 28.6307V33.3248H63.7998V25.9598C63.7998 24.3279 62.5276 23 60.9642 23Z" fill="#F49494"/>
<path d="M78.3058 72.2933C78.3058 73.6009 77.2456 74.6611 75.938 74.6611H24.062C22.7538 74.6611 21.6942 73.6009 21.6942 72.2933V35.2373C21.6942 33.9297 22.7544 32.8694 24.062 32.8694H75.938C77.2456 32.8694 78.3058 33.9297 78.3058 35.2373V72.2933Z" fill="white"/>
<path d="M61.6131 65.3828C68.0293 58.9665 68.0293 48.5637 61.6131 42.1475C55.1968 35.7312 44.7941 35.7312 38.3778 42.1475C31.9616 48.5637 31.9615 58.9665 38.3778 65.3828C44.794 71.799 55.1968 71.799 61.6131 65.3828Z" fill="#F49494"/>
<path d="M54.2967 63.438C54.2967 64.2009 53.6783 64.8187 52.916 64.8187H47.0858C46.3229 64.8187 45.7051 64.2003 45.7051 63.438V44.0999C45.7051 43.3371 46.3235 42.7192 47.0858 42.7192H52.916C53.6789 42.7192 54.2967 43.3376 54.2967 44.0999V63.438Z" fill="white"/>
<path d="M40.3305 58.0682C39.5677 58.0682 38.9498 57.4498 38.9498 56.6875V50.8572C38.9498 50.0944 39.5682 49.4766 40.3305 49.4766H59.6686C60.4315 49.4766 61.0493 50.0949 61.0493 50.8572V56.6875C61.0493 57.4504 60.4309 58.0682 59.6686 58.0682H40.3305Z" fill="white"/>
</svg>
