<svg width="166" height="132" viewBox="0 0 166 132" fill="none" xmlns="http://www.w3.org/2000/svg">
<rect x="0.5" width="165" height="132" fill="white"/>
<path fill-rule="evenodd" clip-rule="evenodd" d="M137.12 42.9004C139.671 42.9004 141.74 44.9688 141.74 47.5204C141.74 50.0719 139.671 52.1404 137.12 52.1404H110.72C113.271 52.1404 115.34 54.2088 115.34 56.7604C115.34 59.3119 113.271 61.3804 110.72 61.3804H125.24C127.791 61.3804 129.86 63.4488 129.86 66.0004C129.86 68.5519 127.791 70.6204 125.24 70.6204H118.525C115.308 70.6204 112.7 72.6888 112.7 75.2404C112.7 76.9414 114.02 78.4814 116.66 79.8604C119.211 79.8604 121.28 81.9288 121.28 84.4804C121.28 87.0319 119.211 89.1004 116.66 89.1004H61.8795C59.328 89.1004 57.2595 87.0319 57.2595 84.4804C57.2595 81.9288 59.328 79.8604 61.8795 79.8604H36.1395C33.588 79.8604 31.5195 77.7919 31.5195 75.2404C31.5195 72.6888 33.588 70.6204 36.1395 70.6204H62.5395C65.0911 70.6204 67.1595 68.5519 67.1595 66.0004C67.1595 63.4488 65.0911 61.3804 62.5395 61.3804H46.0395C43.488 61.3804 41.4195 59.3119 41.4195 56.7604C41.4195 54.2088 43.488 52.1404 46.0395 52.1404H72.4395C69.888 52.1404 67.8195 50.0719 67.8195 47.5204C67.8195 44.9688 69.888 42.9004 72.4395 42.9004H137.12ZM137.12 61.3804C139.671 61.3804 141.74 63.4488 141.74 66.0004C141.74 68.5519 139.671 70.6204 137.12 70.6204C134.568 70.6204 132.5 68.5519 132.5 66.0004C132.5 63.4488 134.568 61.3804 137.12 61.3804Z" fill="#F3F7FF"/>
<path d="M80.0299 87.7796C92.2409 87.7796 102.14 77.8806 102.14 65.6696C102.14 53.4586 92.2409 43.5596 80.0299 43.5596C67.8189 43.5596 57.9199 53.4586 57.9199 65.6696C57.9199 77.8806 67.8189 87.7796 80.0299 87.7796Z" fill="#F3F7FF" stroke="#1F64E7" stroke-width="2.5"/>
<path fill-rule="evenodd" clip-rule="evenodd" d="M76.4872 82.8257C77.648 83.0399 78.8289 83.1513 80.03 83.1597C89.6895 83.1597 97.52 75.3291 97.52 65.6697C97.52 56.0102 89.6895 48.1797 80.03 48.1797C77.5487 48.1797 75.188 48.6964 73.0498 49.6281C69.334 51.2473 66.2899 54.1196 64.4514 57.7113C63.2294 60.0986 62.54 62.8036 62.54 65.6697C62.54 68.2701 63.1075 70.7379 64.1255 72.9562C64.8522 74.5398 65.8085 75.9962 66.9517 77.2828" fill="white"/>
<path d="M76.4872 82.8257C77.648 83.0399 78.8289 83.1513 80.03 83.1597C89.6895 83.1597 97.52 75.3291 97.52 65.6697C97.52 56.0102 89.6895 48.1797 80.03 48.1797C77.5487 48.1797 75.188 48.6964 73.0498 49.6281C69.334 51.2473 66.2899 54.1196 64.4514 57.7113C63.2294 60.0986 62.54 62.8036 62.54 65.6697C62.54 68.2701 63.1075 70.7379 64.1255 72.9562C64.8522 74.5398 65.8085 75.9962 66.9517 77.2828" stroke="#1F64E7" stroke-width="2.5" stroke-linecap="round"/>
<path d="M69.0059 79.249C70.4236 80.4014 72.0253 81.3361 73.7601 82.0025" stroke="#1F64E7" stroke-width="2.5" stroke-linecap="round"/>
<path d="M98.1797 83.1592L102.14 87.1192" stroke="#1F64E7" stroke-width="2.5"/>
<path fill-rule="evenodd" clip-rule="evenodd" d="M101.5 86.4799C100.251 87.7291 100.251 89.7544 101.5 91.0036L108.817 98.3199C110.066 99.5691 112.091 99.5691 113.34 98.3199C114.59 97.0707 114.59 95.0454 113.34 93.7962L106.024 86.4799C104.775 85.2307 102.75 85.2307 101.5 86.4799Z" fill="#E8F0FE" stroke="#1F64E7" stroke-width="2.5"/>
<path d="M104.78 87.7793L112.04 95.0393" stroke="white" stroke-width="2.5" stroke-linecap="round"/>
<path fill-rule="evenodd" clip-rule="evenodd" d="M75.7403 58.08C75.7403 65.7347 81.9456 71.94 89.6003 71.94C91.104 71.94 92.5518 71.7006 93.9076 71.2577C91.6945 76.7495 86.3151 80.6261 80.0303 80.6261C71.7703 80.6261 65.0742 73.93 65.0742 65.67C65.0742 58.1853 70.5723 51.9848 77.75 50.8867C76.4748 52.9844 75.7403 55.4464 75.7403 58.08Z" fill="#E8F0FE"/>
<path d="M80.3603 53.46C79.5199 53.46 78.6987 53.5426 77.9046 53.7003M75.5058 54.4342C70.9909 56.3315 67.8203 60.7955 67.8203 66" stroke="#75A4FE" stroke-width="2.5" stroke-linecap="round"/>
<path d="M115.456 65.8528H110.06M119.63 60.7197H108.294H119.63ZM124.25 60.7197H122.784H124.25Z" stroke="#75A4FE" stroke-width="2.5" stroke-linecap="round" stroke-linejoin="round"/>
<path d="M56.0559 80.3731H50.6599M52.9699 74.5801H41.6339H52.9699ZM37.7899 74.5801H35.0039H37.7899Z" stroke="#75A4FE" stroke-width="2.5" stroke-linecap="round" stroke-linejoin="round"/>
</svg>
