<svg width="24" height="24" viewBox="0 0 24 24" fill="none" xmlns="http://www.w3.org/2000/svg">
<path d="M12.4366 23.8733C18.7529 23.8733 23.8733 18.7529 23.8733 12.4366C23.8733 6.12036 18.7529 1 12.4366 1C6.12036 1 1 6.12036 1 12.4366C1 18.7529 6.12036 23.8733 12.4366 23.8733Z" fill="#008CEB"/>
<path d="M19.2841 12.5756V15.7945C19.2841 16.0039 19.1941 16.0479 19.0182 15.9453C18.7828 15.8041 18.5379 15.6795 18.2852 15.5725C17.5219 15.2684 16.6952 15.1583 15.8789 15.2521C14.988 15.3677 14.1137 15.5869 13.2737 15.9055C12.436 16.1882 11.615 16.494 10.7606 16.7306C10.0529 16.9408 9.31637 17.0376 8.57839 17.0175C7.76052 16.9858 6.96567 16.7379 6.27472 16.2992C6.18791 16.2469 6.11668 16.1723 6.06843 16.0832C6.02019 15.9941 5.99669 15.8937 6.00038 15.7924C6.00038 13.6842 6.00038 11.576 6.00038 9.46779C6.00038 9.36517 6.00038 9.24371 6.09252 9.19135C6.18467 9.13899 6.27891 9.22486 6.35849 9.27721C7.10879 9.78454 7.99743 10.0478 8.90299 10.0311C9.5505 10.0046 10.1909 9.88539 10.8046 9.67721C11.6758 9.40706 12.5177 9.04894 13.3742 8.74528C14.041 8.48904 14.7246 8.27911 15.4203 8.117C16.0173 7.97719 16.6368 7.96251 17.2398 8.07388C17.8428 8.18525 18.4162 8.42027 18.9239 8.76413C19.0403 8.83544 19.1356 8.93647 19.2001 9.05683C19.2645 9.17719 19.2957 9.31253 19.2904 9.44894C19.2904 10.4961 19.2904 11.5432 19.2904 12.5903L19.2841 12.5756Z" fill="#FEFEFE"/>
</svg>
