<svg width="45" height="43" viewBox="0 0 45 43" fill="none" xmlns="http://www.w3.org/2000/svg">
<g clip-path="url(#clip0_903_2)">
<path d="M23.6411 43.1987C35.5701 43.1987 45.2404 33.5284 45.2404 21.5994C45.2404 9.67038 35.5701 3.05176e-05 23.6411 3.05176e-05C11.7121 3.05176e-05 2.04175 9.67038 2.04175 21.5994C2.04175 33.5284 11.7121 43.1987 23.6411 43.1987Z" fill="#00AED6"/>
<path fill-rule="evenodd" clip-rule="evenodd" d="M36.2407 20.9693C36.0607 18.2694 33.7207 16.1095 31.0208 16.2895H17.3412C16.8012 16.2895 16.4413 15.9295 16.4413 15.3895C16.4413 14.8495 16.8012 14.4895 17.3412 14.4895H31.2008C31.1108 12.6896 29.7609 10.7997 28.0509 10.5297C24.001 9.80969 19.8612 9.80969 15.9013 10.5297C13.6513 10.8897 11.9414 13.1396 11.5814 15.2995C10.9514 19.5294 10.9514 23.8493 11.5814 28.0791C12.0314 30.5091 14.0113 32.489 16.5313 32.849C21.5711 33.479 26.611 33.479 31.5608 32.849C33.8107 32.579 35.2507 30.5091 35.7007 28.3491C36.1507 25.8292 36.3307 23.3993 36.2407 20.9693ZM31.7408 23.9393V24.7492C31.7408 25.2892 31.3808 25.6492 30.8408 25.6492C30.3008 25.6492 29.9409 25.2892 29.9409 24.7492V23.9393C29.6709 23.6693 29.4909 23.3093 29.4909 22.9493C29.4909 22.2293 30.1208 21.5993 30.8408 21.5993C31.5608 21.5993 32.1908 22.2293 32.1908 22.9493C32.1908 23.3093 32.0108 23.6693 31.7408 23.9393Z" fill="white"/>
</g>
<defs>
<clipPath id="clip0_903_2">
<rect width="45" height="43" fill="white"/>
</clipPath>
</defs>
</svg>
