<svg width="27" height="25" viewBox="0 0 27 25" fill="none" xmlns="http://www.w3.org/2000/svg">
<g clip-path="url(#clip0_903_4)">
<path fill-rule="evenodd" clip-rule="evenodd" d="M20.6175 0.00599185L0.87212 2.66697C0.87212 2.66697 0 2.76931 0 3.83129V22.782C0 22.782 0.119142 24.9999 2.62708 24.9999H25.0055C25.0055 24.9999 27 24.5183 27 22.5002V6.86312C27 6.86312 27.0393 4.64524 24.4074 4.64524H2.82724C2.57327 4.59097 2.33969 4.46515 2.15351 4.28233C1.96734 4.09951 1.83619 3.86716 1.77522 3.61215C1.70969 3.26057 1.85028 3.22445 2.21842 3.22445H22.0341V1.06436C22.0341 1.06436 21.9638 -0.0939452 20.6175 0.00599185Z" fill="#E8451E"/>
<path fill-rule="evenodd" clip-rule="evenodd" d="M13.8945 22C12.2411 22 11.0233 21.3103 9.22675 19.4911C9.07961 19.3339 8.99825 19.1241 9.00003 18.9064C9.0018 18.6887 9.08657 18.4803 9.23626 18.3256C9.38595 18.171 9.58873 18.0823 9.80139 18.0784C10.014 18.0745 10.2198 18.1558 10.3747 18.305C12.2664 20.219 13.1424 20.6944 14.6538 20.2756C15.5322 20.0293 16.3204 18.8863 16.3661 17.5721C16.4022 16.551 15.6983 15.8847 14.2747 15.5928C11.7189 15.0693 10.2099 14.0692 9.79111 12.6183C9.45418 11.4507 9.89701 10.1463 11.0053 9.04641L11.051 9.00454C13.4336 6.9661 16.2001 8.48477 17.33 9.57357C17.4808 9.72679 17.5672 9.93417 17.5709 10.1516C17.5746 10.3691 17.4953 10.5794 17.3499 10.7379C17.2044 10.8964 17.0043 10.9906 16.792 11.0004C16.5798 11.0102 16.3721 10.9349 16.2133 10.7905C16.1182 10.6993 13.9775 8.70893 12.122 10.2658C11.4878 10.9075 11.2014 11.6108 11.3579 12.1502C11.5841 12.9361 12.7345 13.579 14.596 13.9608C17.7596 14.6087 18.0291 16.7481 17.9978 17.6374C17.9305 19.5748 16.3469 21.745 14.8608 21.9372C14.5403 21.979 14.2175 22 13.8945 22V22Z" fill="white"/>
</g>
<defs>
<clipPath id="clip0_903_4">
<rect width="27" height="25" fill="white"/>
</clipPath>
</defs>
</svg>
